<svg width="300" height="200" viewBox="0 0 300 200" fill="none" xmlns="http://www.w3.org/2000/svg">
<path d="M125.642 142.677C121.429 130.56 113.793 128.017 108.189 134.916C102.585 141.815 96.1796 148.134 96.9803 154.543C97.7809 160.952 105.597 170.284 105.597 170.284C105.597 170.284 98.2413 172.167 100.413 184.594C104.516 186.677 120.689 185.816 125.863 183.012C131.037 180.208 127.374 147.643 125.642 142.677Z" fill="white"/>
<path d="M107.318 137.069C107.318 137.069 115.735 155.404 114.003 167.27C117.456 174.821 110.12 183.873 105.167 185.175C114.173 186.897 123.921 184.093 125.863 183.012C127.804 181.93 131.467 162.734 126.073 146.132C120.678 129.529 117.886 127.797 115.294 129.108C112.702 130.42 107.318 137.069 107.318 137.069Z" fill="#E2DDE8"/>
<path d="M171.558 142.676C175.772 130.56 183.628 127.365 189.242 134.265C194.857 141.164 202.783 147.493 201.952 153.892C201.122 160.29 193.946 171.796 193.946 171.796C193.946 171.796 198.95 172.167 196.768 184.594C192.655 186.676 176.492 185.815 171.318 183.011C166.144 180.208 169.877 147.643 171.558 142.676Z" fill="white"/>
<path d="M166.365 181.499C167.059 184.401 167.198 187.408 166.775 190.361" stroke="#1D1D1B" stroke-width="1.88784" stroke-linecap="round" stroke-linejoin="round"/>
<path d="M184.068 134.055C184.068 134.055 179.965 156.696 184.499 167.911C180.616 176.323 184.279 183.873 188.372 185.816C178.024 186.467 171.128 183.873 167.465 175.892C163.802 167.911 166.384 132.753 171.779 124.132C177.173 115.51 182.988 126.285 182.988 126.285L184.068 134.055Z" fill="#E2DDE8"/>
<path d="M148.17 84.0166C128.775 84.0166 119.397 90.8059 116.485 98.2458C113.573 105.686 108.079 118.273 110.02 125.743C111.962 133.214 123.27 171.256 123.27 176.112C123.27 180.969 118.427 189.811 126.513 190.452C134.599 191.093 144.617 192.715 148.53 186.246C151.112 189.811 163.402 192.394 170.187 190.452C176.973 188.509 173.42 183.012 173.75 174.28C174.08 165.548 186.03 131.221 185.71 124.131C185.389 117.042 180.536 97.2747 177.303 93.089C174.07 88.9033 154.965 84.0166 148.17 84.0166Z" fill="white"/>
<path d="M176.302 102.992C176.302 102.992 167.035 115.929 156.687 122.408C149.141 121.327 123.06 110.111 123.06 110.111C123.06 110.111 117.056 118.954 122.41 143.327C127.764 167.7 128.665 170.714 128.234 178.265C127.804 185.815 129.315 190.782 132.118 190.992C124.782 190.131 121.769 191.423 122.41 181.719C123.05 172.016 113.403 144.619 112.062 136.207C110.721 127.796 109.26 118.733 110.991 113.556C112.722 108.379 119.177 93.0681 119.177 93.0681C119.177 93.0681 138.793 87.0599 153.885 87.6807C168.977 88.3016 182.988 96.7331 176.302 102.992Z" fill="#E2DDE8"/>
<path d="M199.781 63.267C193.956 27.0075 165.874 13.2587 165.874 13.2587C160.755 13.0306 155.636 13.7085 150.752 15.2614V15.3516C146.471 14.1676 142.099 13.3371 137.682 12.8682C137.682 12.8682 104.356 22.7717 99.8223 65.7304C100.963 72.7399 105.827 80.9712 109.83 86.8692C111.151 91.0049 113.933 95.2006 119.377 98.9659C129.135 105.715 143.186 111.062 149.961 113.426C151.953 115.025 154.08 116.449 156.316 117.681C163.052 112.574 179.064 102.481 184.999 89.7431C191.004 83.3745 199.551 73.3307 199.781 63.267Z" fill="#B896D6"/>
<path d="M127.994 35.1096C136.508 32.0233 145.471 30.3588 154.525 30.1828C161.135 29.9293 167.696 31.4286 173.54 34.5288C173.54 34.5288 184.189 52.8037 185.029 67.3135C180.025 81.8834 164.783 85.7688 164.783 85.7688C164.783 85.7688 161.781 93.1689 152.123 93.1689C149.02 93.2641 145.955 92.458 143.3 90.848C140.645 89.238 138.514 86.893 137.162 84.0965C137.162 84.0965 124.852 81.3127 117.146 70.7883C117.226 53.7951 127.994 35.1096 127.994 35.1096Z" fill="white"/>
<path d="M135.13 14.5615C135.13 14.5615 114.433 30.303 108.829 66.9731C112.062 78.3987 119.608 99.327 142.245 105.145L151.943 114.428C151.943 114.428 116.375 104.073 110.12 85.949C101.934 74.7337 100.113 65.7314 100.113 65.7314C100.113 65.7314 101.464 43.461 114.183 29.6822C126.903 15.9034 135.13 14.5615 135.13 14.5615Z" fill="#A67EC9"/>
<path fill-rule="evenodd" clip-rule="evenodd" d="M110.256 116.728C110.773 116.919 111.035 117.493 110.844 118.008C110.574 118.736 110.478 120.045 110.616 121.929C110.749 123.772 111.091 126.03 111.588 128.568C112.581 133.639 114.173 139.734 115.873 145.671C117.57 151.604 119.369 157.36 120.771 161.747C121.325 163.482 121.816 165.001 122.215 166.234C122.32 166.56 122.419 166.865 122.511 167.149C122.938 168.472 123.236 169.401 123.301 169.68C123.303 169.688 123.304 169.696 123.306 169.704C124.036 173.299 124.003 180.511 123.452 186.684L123.45 186.706C123.393 187.215 123.527 187.727 123.824 188.142C124.119 188.553 124.555 188.841 125.047 188.953C130.79 189.976 136.093 190.246 140.169 189.798C142.212 189.575 143.906 189.174 145.182 188.627C146.469 188.073 147.227 187.414 147.573 186.734C147.726 186.434 147.904 185.676 148.047 184.383C148.183 183.144 148.275 181.556 148.329 179.714C148.438 176.033 148.395 171.403 148.278 166.672C148.043 157.214 147.511 147.406 147.306 144.089C147.272 143.54 147.69 143.068 148.239 143.033C148.788 142.999 149.26 143.417 149.294 143.967C149.5 147.298 150.034 157.133 150.269 166.623C150.387 171.366 150.43 176.038 150.32 179.773C150.265 181.638 150.171 183.287 150.027 184.601C149.887 185.862 149.687 186.97 149.348 187.638C148.708 188.897 147.476 189.809 145.968 190.457C144.45 191.11 142.546 191.543 140.386 191.779C136.064 192.254 130.555 191.959 124.677 190.911C124.665 190.909 124.653 190.907 124.64 190.904C123.659 190.691 122.792 190.12 122.207 189.304C121.623 188.491 121.361 187.491 121.469 186.497C122.017 180.366 122.024 173.416 121.357 170.116C121.311 169.928 121.058 169.132 120.615 167.762C120.524 167.479 120.425 167.174 120.32 166.849C119.922 165.616 119.428 164.092 118.873 162.354C117.47 157.958 115.664 152.18 113.958 146.22C112.253 140.263 110.643 134.104 109.634 128.95C109.129 126.375 108.771 124.029 108.629 122.073C108.491 120.159 108.546 118.475 108.977 117.314C109.168 116.799 109.741 116.536 110.256 116.728Z" fill="#1D1D1B"/>
<path fill-rule="evenodd" clip-rule="evenodd" d="M116.969 95.7802C117.501 95.9203 117.818 96.4652 117.678 96.9973L116.715 96.7437L115.753 96.4899C115.893 95.9578 116.437 95.64 116.969 95.7802ZM116.715 96.7437C115.753 96.49 115.753 96.4899 115.753 96.4899L115.736 96.5528L115.686 96.7403C115.642 96.905 115.576 97.1476 115.491 97.4575C115.321 98.0782 115.074 98.9674 114.765 100.043C114.145 102.195 113.279 105.088 112.287 108.055C111.294 111.027 110.182 114.051 109.075 116.476C108.522 117.69 107.979 118.731 107.464 119.534C106.931 120.364 106.494 120.829 106.186 121.02C105.718 121.307 105.572 121.921 105.86 122.389C106.148 122.858 106.761 123.005 107.229 122.717C107.935 122.282 108.571 121.496 109.139 120.611C109.725 119.698 110.312 118.562 110.887 117.304C112.037 114.785 113.174 111.685 114.175 108.687C115.179 105.685 116.055 102.764 116.678 100.595C116.991 99.5092 117.241 98.6109 117.412 97.9841C117.498 97.6708 117.564 97.4245 117.609 97.2566L117.66 97.0645L117.678 96.9973C117.678 96.9971 117.678 96.9973 116.715 96.7437Z" fill="#1D1D1B"/>
<path d="M124.782 43.4609C124.782 43.4609 121.98 58.3413 123.491 68.4951C126.723 74.1028 136.641 79.9207 141.165 81.2225C143.757 87.0405 147.42 91.5666 149.791 93.299C147.097 92.9212 144.539 91.8848 142.341 90.2814C140.143 88.6779 138.374 86.557 137.192 84.1064C137.192 84.1064 122.6 80.4515 117.176 70.7983C117.456 53.8151 124.782 43.4609 124.782 43.4609Z" fill="#E2DDE8"/>
<path fill-rule="evenodd" clip-rule="evenodd" d="M179.013 97.8222C179.546 97.6841 180.089 98.0033 180.228 98.535L179.265 98.7864L178.301 99.0377C178.163 98.505 178.481 97.9612 179.013 97.8222ZM175.442 186.497C174.893 180.358 174.887 173.395 175.557 170.103V170.101C175.616 169.808 176.056 168.226 176.741 165.762C176.989 164.87 177.269 163.862 177.574 162.758C178.713 158.646 180.186 153.276 181.61 147.808C183.032 142.343 184.408 136.767 185.35 132.246C185.822 129.987 186.189 127.975 186.398 126.365C186.503 125.561 186.57 124.842 186.59 124.234C186.609 123.645 186.587 123.088 186.474 122.644C185.853 120.203 184.292 114.174 182.886 108.759C182.182 106.05 181.518 103.495 181.03 101.616L180.228 98.535C180.228 98.535 180.228 98.535 179.265 98.7864C178.301 99.0377 178.301 99.0377 178.301 99.0377L179.103 102.118C179.591 103.996 180.254 106.552 180.958 109.26C182.364 114.677 183.924 120.7 184.545 123.136C184.587 123.301 184.618 123.63 184.6 124.169C184.583 124.689 184.524 125.339 184.424 126.108C184.224 127.645 183.868 129.6 183.401 131.839C182.468 136.312 181.102 141.85 179.682 147.306C178.263 152.759 176.794 158.117 175.656 162.225C175.375 163.239 175.112 164.183 174.875 165.034C174.164 167.595 173.68 169.334 173.605 169.705L175.442 186.497ZM175.442 186.497C175.55 187.493 175.288 188.492 174.704 189.305C174.119 190.121 173.252 190.691 172.271 190.904C172.258 190.907 172.246 190.91 172.233 190.912C166.356 191.96 160.847 192.254 156.525 191.78C154.365 191.543 152.461 191.11 150.942 190.458C149.435 189.81 148.203 188.898 147.563 187.64C147.314 187.149 147.509 186.549 147.999 186.299C148.488 186.05 149.088 186.245 149.338 186.735C149.683 187.414 150.442 188.073 151.729 188.627C153.005 189.176 154.698 189.575 156.742 189.8C160.818 190.246 166.12 189.976 171.864 188.953C172.356 188.842 172.792 188.554 173.087 188.142C173.384 187.727 173.518 187.216 173.461 186.707L173.459 186.685C172.908 180.512 172.874 173.301 173.605 169.706" fill="#1D1D1B"/>
<path fill-rule="evenodd" clip-rule="evenodd" d="M171.133 130.049C171.57 130.384 171.653 131.01 171.318 131.446C170.737 132.205 169.472 133.408 167.872 134.747C166.248 136.107 164.213 137.663 162.036 139.135C159.861 140.606 157.527 142.005 155.308 143.041C153.113 144.065 150.927 144.784 149.081 144.784C147.217 144.784 144.815 143.929 142.376 142.777C139.896 141.605 137.229 140.052 134.786 138.513C132.34 136.971 130.1 135.43 128.474 134.276C127.66 133.698 126.999 133.217 126.54 132.879C126.311 132.711 126.132 132.578 126.011 132.487C125.95 132.442 125.903 132.407 125.872 132.382L125.836 132.355L125.824 132.346C125.823 132.346 125.823 132.345 126.423 131.551L127.024 130.756L127.035 130.764L127.068 130.79C127.098 130.812 127.143 130.846 127.202 130.89C127.32 130.979 127.495 131.109 127.72 131.274C128.17 131.606 128.823 132.08 129.626 132.651C131.233 133.79 133.441 135.309 135.847 136.827C138.257 138.346 140.848 139.852 143.225 140.975C145.644 142.117 147.697 142.792 149.081 142.792C150.482 142.792 152.346 142.224 154.465 141.235C156.559 140.258 158.8 138.918 160.92 137.483C163.039 136.05 165.02 134.535 166.594 133.219C168.191 131.882 169.303 130.801 169.737 130.235C170.071 129.797 170.697 129.715 171.133 130.049ZM125.629 130.95C125.961 130.511 126.585 130.425 127.024 130.756L126.423 131.551L125.823 132.345C125.383 132.014 125.297 131.389 125.629 130.95Z" fill="#1D1D1B"/>
<path fill-rule="evenodd" clip-rule="evenodd" d="M111.739 133.329H111.738L111.733 133.334L111.712 133.352C111.693 133.368 111.664 133.394 111.625 133.428C111.548 133.496 111.433 133.598 111.285 133.732C110.988 134.001 110.558 134.397 110.032 134.905C108.978 135.92 107.539 137.376 106.001 139.136C102.937 142.644 99.5579 147.278 97.9999 151.986C97.8499 156.514 99.7437 160.728 101.753 163.872C102.762 165.451 103.784 166.736 104.553 167.625C104.938 168.069 105.257 168.412 105.479 168.643C105.59 168.759 105.676 168.846 105.733 168.903C105.762 168.931 105.783 168.952 105.797 168.965L105.812 168.98L105.814 168.982C106.212 169.363 106.226 169.994 105.846 170.391C105.467 170.789 104.836 170.804 104.439 170.423L105.127 169.703C104.439 170.423 104.439 170.423 104.439 170.423L104.435 170.42L104.429 170.414L104.407 170.393C104.389 170.375 104.362 170.349 104.328 170.315C104.261 170.248 104.165 170.151 104.043 170.024C103.8 169.771 103.457 169.402 103.048 168.929C102.231 167.985 101.147 166.623 100.076 164.946C97.9445 161.611 95.7978 156.931 96.0152 151.767C96.019 151.677 96.0351 151.588 96.0628 151.501C97.727 146.36 101.354 141.429 104.502 137.825C106.085 136.012 107.565 134.514 108.651 133.469C109.193 132.946 109.639 132.536 109.949 132.254C110.105 132.114 110.226 132.006 110.31 131.932C110.352 131.895 110.384 131.867 110.406 131.848L110.432 131.825L110.441 131.818C110.441 131.817 110.442 131.817 111.091 132.573L110.442 131.817C110.86 131.458 111.488 131.506 111.847 131.924C112.205 132.341 112.157 132.97 111.739 133.329Z" fill="#1D1D1B"/>
<path fill-rule="evenodd" clip-rule="evenodd" d="M121.429 169.193C118.246 168.905 115.044 168.905 111.861 169.193L111.838 169.195C108.805 169.401 105.736 170.642 103.665 173.058C101.694 175.357 100.525 178.841 101.294 183.825C106.392 185.358 111.471 185.246 115.347 184.723C117.354 184.451 119.024 184.071 120.19 183.76C120.772 183.605 121.228 183.467 121.535 183.369C121.688 183.32 121.804 183.281 121.881 183.255C121.919 183.242 121.947 183.232 121.965 183.225L121.984 183.219L121.988 183.217C122.505 183.028 123.076 183.294 123.265 183.81C123.454 184.328 123.188 184.9 122.671 185.088L122.33 184.153C122.671 185.088 122.671 185.089 122.671 185.089H122.67L122.667 185.09L122.659 185.093L122.631 185.103C122.606 185.112 122.572 185.124 122.527 185.139C122.438 185.17 122.308 185.213 122.141 185.267C121.805 185.374 121.319 185.521 120.702 185.686C119.471 186.014 117.717 186.413 115.614 186.697C111.417 187.265 105.775 187.385 100.105 185.541C99.7562 185.428 99.4981 185.131 99.4328 184.771C98.3894 178.997 99.6436 174.689 102.154 171.761C104.639 168.862 108.246 167.444 111.692 167.208C114.991 166.909 118.311 166.91 121.609 167.209C122.157 167.258 122.56 167.742 122.511 168.29C122.461 168.839 121.977 169.242 121.429 169.193Z" fill="#1D1D1B"/>
<path d="M184.31 129.861C184.666 129.441 185.294 129.389 185.714 129.745L186.472 130.406L187.09 130.96L187.749 131.562L188.446 132.21C190.488 134.126 192.529 136.191 194.437 138.329C196.765 140.938 198.732 143.478 200.225 145.889C201.461 147.886 202.351 149.762 202.85 151.505C202.872 151.581 202.884 151.659 202.887 151.738C202.905 152.171 202.907 152.609 202.892 153.051C202.752 157.256 201.199 161.703 198.704 166.147C197.795 167.767 196.821 169.273 195.846 170.629L195.448 171.174C195.384 171.26 195.321 171.345 195.258 171.427L194.715 172.128L194.53 172.356C194.177 172.778 193.549 172.834 193.127 172.481C192.705 172.127 192.65 171.499 193.002 171.077L193.332 170.666L193.671 170.224L194.037 169.731C194.1 169.644 194.165 169.556 194.23 169.465C195.163 168.167 196.097 166.722 196.968 165.171C199.32 160.981 200.774 156.818 200.901 152.985C200.91 152.723 200.913 152.463 200.908 152.205L200.9 151.939L200.826 151.694C200.404 150.363 199.717 148.913 198.791 147.363L198.532 146.938C197.107 144.637 195.208 142.185 192.951 139.656C191.086 137.566 189.085 135.542 187.084 133.663L186.401 133.028L185.755 132.439L184.878 131.656L184.427 131.265C184.007 130.91 183.955 130.281 184.31 129.861Z" fill="#1D1D1B"/>
<path fill-rule="evenodd" clip-rule="evenodd" d="M185.324 167.26C188.765 167.496 192.358 168.908 194.832 171.795C197.329 174.709 198.578 179.001 197.537 184.761C197.475 185.103 197.231 185.384 196.9 185.491C191.24 187.332 185.606 187.212 181.414 186.645C179.313 186.361 177.561 185.963 176.331 185.635C175.716 185.471 175.23 185.324 174.896 185.217C174.729 185.164 174.599 185.12 174.51 185.09C174.466 185.074 174.431 185.062 174.407 185.054L174.379 185.044L174.371 185.041L174.368 185.04C174.367 185.04 174.367 185.039 174.691 184.153L174.368 185.04C173.878 184.861 173.625 184.318 173.804 183.829C173.983 183.339 174.525 183.087 175.015 183.266L175.019 183.268L175.038 183.275C175.056 183.281 175.085 183.291 175.123 183.304C175.2 183.331 175.317 183.37 175.47 183.419C175.778 183.517 176.234 183.655 176.818 183.811C177.985 184.122 179.658 184.503 181.667 184.775C185.555 185.301 190.656 185.412 195.774 183.866C196.555 178.851 195.384 175.341 193.398 173.024C191.318 170.596 188.236 169.35 185.185 169.143L185.164 169.141C181.981 168.853 178.78 168.853 175.597 169.141C175.078 169.188 174.619 168.805 174.571 168.286C174.524 167.767 174.907 167.308 175.426 167.261C178.719 166.963 182.031 166.962 185.324 167.26Z" fill="#1D1D1B"/>
<path fill-rule="evenodd" clip-rule="evenodd" d="M130.398 180.532C130.933 180.66 131.263 181.196 131.135 181.732C130.469 184.512 130.336 187.392 130.741 190.221C130.819 190.766 130.441 191.27 129.897 191.348C129.352 191.426 128.848 191.048 128.77 190.503C128.328 187.426 128.474 184.292 129.197 181.269C129.325 180.733 129.863 180.403 130.398 180.532Z" fill="#1D1D1B"/>
<path fill-rule="evenodd" clip-rule="evenodd" d="M138.802 180.973C139.335 181.105 139.661 181.646 139.529 182.179C138.888 184.777 139.02 187.507 139.912 190.03C140.095 190.549 139.824 191.118 139.305 191.301C138.787 191.484 138.217 191.213 138.034 190.694C137.013 187.803 136.86 184.677 137.596 181.701C137.728 181.167 138.267 180.841 138.802 180.973Z" fill="#1D1D1B"/>
<path d="M157.73 180.972C158.263 180.841 158.802 181.167 158.935 181.701C159.67 184.676 159.521 187.801 158.507 190.692C158.325 191.21 157.757 191.484 157.238 191.302C156.719 191.119 156.446 190.55 156.628 190.032C157.513 187.507 157.644 184.778 157.001 182.179C156.87 181.645 157.195 181.105 157.73 180.972Z" fill="#1D1D1B"/>
<path d="M109.273 70.6137C109.381 70.0741 109.905 69.7235 110.444 69.8309C110.984 69.9382 111.334 70.4628 111.227 71.0025L110.968 72.3214C109.723 78.7607 109.662 83.1709 111.472 87.7813C112.992 91.6513 115.817 95.1097 120.232 98.1451C122.337 99.5931 124.605 100.996 127.014 102.352C132.012 105.167 137.374 107.655 142.738 109.791C144.38 110.445 145.92 111.024 147.326 111.525L148.241 111.848L149.507 112.277L149.871 112.396C150.396 112.562 150.687 113.122 150.521 113.646C150.356 114.171 149.796 114.461 149.272 114.296L148.475 114.035L147.588 113.73L147.261 113.616C145.673 113.059 143.905 112.4 142.001 111.643C136.562 109.477 131.121 106.951 126.038 104.088C123.579 102.704 121.26 101.27 119.104 99.7874C114.369 96.5318 111.288 92.7594 109.619 88.51C107.691 83.6017 107.7 78.9863 108.906 72.5034L109.178 71.0958L109.273 70.6137Z" fill="#1D1D1B"/>
<path d="M187.567 81.5849C188.113 81.6487 188.504 82.1435 188.441 82.6901C187.425 91.3984 181.298 99.6066 171.196 108.03C170.1 108.945 168.984 109.841 167.808 110.752L166.61 111.67C166.407 111.825 166.201 111.981 165.993 112.137L164.718 113.086L161.514 115.412L157.309 118.459C157.274 118.484 157.243 118.508 157.214 118.529C156.904 118.763 156.486 118.794 156.144 118.609C153.611 117.238 151.13 115.514 148.726 113.52C146.504 111.676 144.466 109.702 142.657 107.728L142.047 107.053C141.852 106.835 141.665 106.621 141.488 106.415L140.979 105.815L140.429 105.14C140.41 105.116 140.393 105.094 140.377 105.074C140.041 104.639 140.121 104.013 140.556 103.676C140.991 103.34 141.616 103.42 141.952 103.855L142.294 104.279L142.746 104.821L143.26 105.418C143.53 105.725 143.818 106.046 144.124 106.381C145.876 108.293 147.85 110.204 149.997 111.986C152.096 113.728 154.25 115.25 156.435 116.492L156.54 116.551L162.209 112.456L162.879 111.967L164.17 111.013C166.268 109.449 168.122 108 169.921 106.499C179.665 98.374 185.522 90.5286 186.462 82.4591C186.521 81.9516 186.952 81.5781 187.451 81.5781L187.567 81.5849Z" fill="#1D1D1B"/>
<path fill-rule="evenodd" clip-rule="evenodd" d="M121.652 35.9216C120.599 35.4906 119.418 35.4959 118.368 35.9364C117.319 36.3769 116.487 37.2165 116.056 38.2707C115.625 39.3247 115.631 40.5069 116.071 41.5571C116.511 42.6073 117.35 43.4395 118.404 43.8706C118.912 44.079 119.156 44.6607 118.948 45.1701C118.74 45.6794 118.159 45.9234 117.649 45.715C116.107 45.0839 114.879 43.8655 114.234 42.3279C113.589 40.7903 113.582 39.0595 114.212 37.5162C114.843 35.973 116.061 34.7436 117.598 34.0988C119.134 33.4538 120.865 33.4461 122.407 34.0772C122.915 34.2856 123.159 34.8673 122.951 35.3767C122.743 35.886 122.162 36.13 121.652 35.9216Z" fill="#1D1D1B"/>
<path fill-rule="evenodd" clip-rule="evenodd" d="M178.687 34.0772C180.229 33.4461 181.96 33.4538 183.496 34.0988C185.033 34.7436 186.251 35.973 186.882 37.5162C187.512 39.0595 187.505 40.7903 186.86 42.3279C186.215 43.8655 184.987 45.0839 183.445 45.715C182.935 45.9234 182.354 45.6794 182.146 45.1701C181.938 44.6607 182.182 44.079 182.69 43.8706C183.744 43.4395 184.583 42.6073 185.023 41.5571C185.463 40.5069 185.469 39.3247 185.038 38.2707C184.607 37.2165 183.775 36.3769 182.726 35.9364C181.676 35.4959 180.495 35.4906 179.442 35.9216C178.932 36.13 178.351 35.886 178.143 35.3767C177.935 34.8673 178.179 34.2856 178.687 34.0772Z" fill="#1D1D1B"/>
<path fill-rule="evenodd" clip-rule="evenodd" d="M172.821 35.2763C167.195 32.3486 160.903 30.9357 154.563 31.1787L154.544 31.1793C145.723 31.3507 136.988 32.9526 128.68 35.9218C128.609 36.0505 128.517 36.2175 128.407 36.4206C128.117 36.9563 127.701 37.7432 127.201 38.7415C126.2 40.739 124.864 43.579 123.526 46.945C120.877 53.6069 118.251 62.2481 118.144 70.4636C121.847 75.4059 126.605 78.565 130.487 80.4973C132.459 81.4789 134.194 82.1388 135.433 82.5522C136.052 82.7588 136.546 82.9035 136.881 82.9959C137.049 83.042 137.177 83.0751 137.263 83.0961C137.305 83.1067 137.336 83.1143 137.356 83.119L137.378 83.1241L137.381 83.125C137.677 83.1918 137.926 83.39 138.058 83.663C139.326 86.2863 141.326 88.4859 143.817 89.9961C146.308 91.5064 149.182 92.2624 152.093 92.1731C152.103 92.1728 152.113 92.1728 152.123 92.1728C156.668 92.1728 159.595 90.4419 161.392 88.7446C162.296 87.8891 162.922 87.0343 163.318 86.3981C163.516 86.0805 163.656 85.8191 163.744 85.642C163.788 85.5535 163.819 85.4861 163.839 85.4436C163.849 85.4223 163.856 85.4073 163.859 85.3989L163.861 85.3941C163.98 85.1017 164.231 84.8819 164.537 84.8036L164.542 84.8022L164.569 84.7952C164.593 84.7886 164.632 84.778 164.684 84.7633C164.788 84.7337 164.944 84.6878 165.149 84.6234C165.556 84.4949 166.149 84.2936 166.879 84.0069C168.341 83.4325 170.345 82.5181 172.499 81.1618C176.774 78.4707 181.596 74.0721 184.023 67.1751C183.573 60.1476 180.786 52.1729 178.056 45.8768C176.684 42.7121 175.338 39.996 174.335 38.072C173.833 37.1104 173.418 36.3474 173.129 35.8261C173 35.5933 172.896 35.4088 172.821 35.2763ZM173.54 34.5291L174.401 34.0272C174.307 33.8668 174.171 33.7357 174.007 33.6488C168.01 30.4678 161.279 28.9287 154.496 29.1871C145.337 29.3661 136.269 31.0505 127.655 34.1731C127.435 34.2531 127.249 34.4086 127.132 34.6121L127.994 35.1099C127.132 34.6121 127.132 34.6118 127.132 34.6121L127.129 34.6169L127.123 34.6284L127.098 34.6717C127.077 34.7093 127.045 34.7647 127.004 34.8372C126.923 34.982 126.805 35.1951 126.656 35.4714C126.357 36.0238 125.931 36.8295 125.42 37.8484C124.399 39.8856 123.038 42.7788 121.675 46.2084C118.955 53.0485 116.191 62.1039 116.15 70.7839C116.149 70.9973 116.216 71.2053 116.342 71.3774C120.318 76.8077 125.468 80.2248 129.6 82.2814C131.669 83.3112 133.493 84.005 134.803 84.4423C135.458 84.6612 135.987 84.8164 136.354 84.9173C136.397 84.9291 136.437 84.94 136.475 84.9503C137.917 87.735 140.099 90.0717 142.785 91.7003C145.6 93.4074 148.849 94.2635 152.138 94.1655C157.243 94.1616 160.641 92.1943 162.759 90.1935C163.811 89.199 164.54 88.2038 165.008 87.4526C165.22 87.1141 165.378 86.8238 165.491 86.6033C165.568 86.5801 165.653 86.5536 165.748 86.5238C166.193 86.383 166.83 86.1668 167.606 85.8618C169.159 85.2522 171.278 84.2846 173.56 82.8485C178.12 79.9784 183.372 75.2039 185.971 67.6375C186.013 67.5151 186.031 67.3856 186.023 67.2562C185.593 59.8212 182.662 51.4939 179.883 45.0837C178.488 41.866 177.12 39.1063 176.1 37.1505C175.59 36.1721 175.166 35.3941 174.87 34.8592C174.722 34.5919 174.605 34.3852 174.525 34.2448C174.485 34.1746 174.455 34.1208 174.434 34.0844L174.41 34.0426L174.401 34.0286V34.0272C174.4 34.027 174.401 34.0272 173.54 34.5291Z" fill="#1D1D1B"/>
<path fill-rule="evenodd" clip-rule="evenodd" d="M165.965 14.2154C161.031 14.0203 156.1 14.6854 151.394 16.1815C150.869 16.348 150.31 16.0579 150.144 15.5335C149.977 15.009 150.267 14.4488 150.791 14.2822C155.789 12.6935 161.029 12.0001 166.268 12.2337C166.419 12.2404 166.56 12.28 166.685 12.3454L166.69 12.3479C166.706 12.3558 166.728 12.3672 166.757 12.3819C166.815 12.4113 166.899 12.4546 167.007 12.5119C167.223 12.6265 167.536 12.7973 167.936 13.0266C168.733 13.4851 169.873 14.1773 171.255 15.1208C174.02 17.0073 177.758 19.901 181.682 23.9417C189.531 32.0266 198.118 44.7077 201.084 63.0785C201.094 63.1384 201.098 63.1992 201.097 63.2598C200.847 74.3358 193.484 82.5831 187.468 88.8421C187.087 89.2386 186.456 89.251 186.06 88.8695C185.664 88.4881 185.652 87.8573 186.033 87.4607C192.069 81.1811 198.835 73.4738 199.103 63.3055C196.201 45.4659 187.865 33.1712 180.253 25.3302C176.438 21.4012 172.807 18.5915 170.133 16.767C168.797 15.8549 167.702 15.1898 166.944 14.7547C166.566 14.5372 166.271 14.3773 166.074 14.2728C166.034 14.2513 165.997 14.2322 165.965 14.2154Z" fill="#1D1D1B"/>
<path fill-rule="evenodd" clip-rule="evenodd" d="M137.778 11.8841C137.901 11.8475 138.03 11.8351 138.158 11.8474L138.062 12.8391L137.778 11.8841ZM138.165 13.8514C138.276 13.8633 138.432 13.8805 138.628 13.9032C139.059 13.9532 139.683 14.0305 140.453 14.1387C141.993 14.3554 144.112 14.6959 146.425 15.1903C151.108 16.1921 156.376 17.7848 159.353 20.1308C159.785 20.4713 160.412 20.3968 160.752 19.9644C161.092 19.5321 161.017 18.9056 160.586 18.5652C157.208 15.9044 151.522 14.2427 146.841 13.2417C144.47 12.7348 142.303 12.3867 140.73 12.1654C139.943 12.0547 139.302 11.9754 138.858 11.9237C138.636 11.8979 138.461 11.8789 138.343 11.8664C138.283 11.8601 138.238 11.8554 138.207 11.8523L138.171 11.8487L138.159 11.8475C138.159 11.8475 138.158 11.8475 138.062 12.8391C137.778 11.8841 137.778 11.8843 137.777 11.8845L137.775 11.8852L137.768 11.8872L137.745 11.894C137.727 11.9 137.7 11.9083 137.665 11.9193C137.596 11.9413 137.496 11.9738 137.367 12.0175C137.108 12.1049 136.735 12.2373 136.261 12.4202C135.313 12.7861 133.962 13.3545 132.331 14.1715C129.069 15.8048 124.681 18.4345 120.149 22.428C111.071 30.4285 101.458 43.8732 99.1623 65.6267C99.1529 65.715 99.1555 65.8042 99.1698 65.8919C100.549 74.3457 105.024 81.7191 109.158 87.5471C109.477 87.9958 110.098 88.1013 110.546 87.7828C110.995 87.4644 111.1 86.8423 110.782 86.3936C106.713 80.6575 102.485 73.637 101.157 65.7022C103.42 44.5762 112.74 31.6133 121.465 23.9234C125.844 20.0637 130.084 17.5251 133.222 15.9535C134.791 15.1678 136.083 14.6247 136.977 14.2795C137.425 14.107 137.773 13.9839 138.006 13.9048C138.067 13.8841 138.12 13.8662 138.165 13.8514Z" fill="#1D1D1B"/>
<path fill-rule="evenodd" clip-rule="evenodd" d="M170.903 44.1839C170.907 44.7342 170.465 45.1837 169.915 45.188C168.257 45.2009 166.662 45.8222 165.431 46.934C165.022 47.3027 164.393 47.2705 164.025 46.8621C163.655 46.4537 163.687 45.8237 164.096 45.4549C165.689 44.016 167.754 43.212 169.899 43.1953C170.45 43.1911 170.899 43.6337 170.903 44.1839Z" fill="#1D1D1B"/>
<path d="M174.387 48.4448C174.93 48.3596 175.439 48.7313 175.525 49.2749C175.604 49.7798 175.289 50.2554 174.809 50.3888L174.695 50.4135L162.745 52.286C162.202 52.3711 161.693 51.9994 161.608 51.4558C161.529 50.951 161.844 50.4755 162.324 50.3419L162.437 50.3173L174.387 48.4448Z" fill="#1D1D1B"/>
<path fill-rule="evenodd" clip-rule="evenodd" d="M132.543 41.9C132.553 41.3497 133.007 40.9119 133.557 40.922C139.803 41.0368 142.874 43.2693 144.288 45.7416C144.975 46.9406 145.227 48.1248 145.311 49.0028C145.352 49.4434 145.352 49.8128 145.341 50.0775C145.335 50.2101 145.327 50.3172 145.319 50.3946C145.315 50.4332 145.312 50.4646 145.309 50.4881L145.305 50.5174L145.304 50.5275L145.303 50.5315V50.5331C145.303 50.5339 145.303 50.5346 144.317 50.3898L145.303 50.5346C145.227 51.0481 144.771 51.4177 144.253 51.384L128.841 50.3827C128.292 50.347 127.876 49.873 127.911 49.3238C127.947 48.7748 128.421 48.3585 128.97 48.3942L143.339 49.3278C143.336 49.2836 143.332 49.238 143.327 49.1913C143.263 48.5154 143.07 47.6231 142.56 46.7317C141.582 45.0232 139.264 43.02 133.521 42.9145C132.97 42.9044 132.533 42.4501 132.543 41.9Z" fill="#1D1D1B"/>
<path fill-rule="evenodd" clip-rule="evenodd" d="M158.856 38.1451C159.38 37.9778 159.94 38.2672 160.107 38.7915C162.274 45.5873 163.446 52.6611 163.587 59.7929C163.598 60.3431 163.161 60.7979 162.611 60.8092C162.061 60.8196 161.607 60.3825 161.596 59.8323C161.459 52.8928 160.319 46.0097 158.21 39.3972C158.043 38.8729 158.332 38.3124 158.856 38.1451Z" fill="#1D1D1B"/>
<path d="M144.757 59.7036C144.631 59.6787 144.5 59.6996 144.388 59.7624C144.277 59.8252 144.191 59.926 144.146 60.0465C144.102 60.167 144.101 60.2995 144.145 60.4201C144.19 60.5408 144.275 60.6417 144.387 60.7049C146.978 63.0197 150.331 64.299 153.804 64.299C157.278 64.299 160.631 63.0197 163.222 60.7049C163.323 60.6355 163.398 60.5344 163.434 60.4176C163.471 60.3009 163.468 60.175 163.426 60.0601C163.384 59.9453 163.304 59.8478 163.2 59.7833C163.096 59.7187 162.974 59.6906 162.852 59.7036H144.757Z" fill="#1D1D1B"/>
<path fill-rule="evenodd" clip-rule="evenodd" d="M131.166 49.6551C131.715 49.6765 132.143 50.1396 132.121 50.6895C132.092 51.4443 132.215 52.1974 132.484 52.9035C132.753 53.6096 133.16 54.2541 133.684 54.7987C134.207 55.3431 134.835 55.7763 135.53 56.0721C136.225 56.368 136.972 56.5205 137.727 56.5205C138.481 56.5205 139.229 56.368 139.924 56.0721C140.618 55.7763 141.247 55.3431 141.77 54.7987C142.293 54.2541 142.702 53.6096 142.97 52.9035C143.238 52.1974 143.361 51.4443 143.332 50.6895C143.31 50.1396 143.739 49.6765 144.288 49.6551C144.837 49.6336 145.301 50.062 145.322 50.6119C145.362 51.6348 145.195 52.6553 144.831 53.612C144.467 54.5688 143.915 55.4423 143.205 56.1801C142.496 56.9178 141.645 57.5048 140.704 57.9057C139.762 58.3066 138.75 58.5133 137.727 58.5133C136.704 58.5133 135.691 58.3066 134.749 57.9057C133.809 57.5048 132.958 56.9178 132.248 56.1801C131.539 55.4423 130.986 54.5688 130.622 53.612C130.259 52.6553 130.092 51.6348 130.132 50.6119C130.153 50.062 130.616 49.6336 131.166 49.6551Z" fill="#1D1D1B"/>
<path fill-rule="evenodd" clip-rule="evenodd" d="M174.533 48.7365C175.081 48.6934 175.561 49.1031 175.604 49.6517C175.735 51.313 175.217 52.9605 174.16 54.248C173.106 55.5315 171.598 56.3579 169.949 56.5555C168.609 56.7551 166.952 56.7414 165.371 56.1118C163.753 55.4672 162.282 54.2025 161.348 52.0378C161.129 51.5327 161.362 50.9462 161.866 50.7279C162.371 50.5095 162.957 50.742 163.175 51.2471C163.902 52.9277 164.978 53.8108 166.107 54.2604C167.267 54.7221 168.55 54.7509 169.669 54.5825C169.68 54.5809 169.69 54.5795 169.701 54.5782C170.844 54.4442 171.89 53.8725 172.621 52.983C173.351 52.0936 173.708 50.9556 173.618 49.8081C173.575 49.2594 173.985 48.7798 174.533 48.7365Z" fill="#1D1D1B"/>
<path d="M138.162 53.7744C139.163 53.7744 139.974 52.9629 139.974 51.9619C139.974 50.9608 139.163 50.1494 138.162 50.1494C137.161 50.1494 136.351 50.9608 136.351 51.9619C136.351 52.9629 137.161 53.7744 138.162 53.7744Z" fill="#1D1D1B"/>
<path d="M169.227 53.164C170.227 53.164 171.038 52.3525 171.038 51.3515C171.038 50.3506 170.227 49.5391 169.227 49.5391C168.226 49.5391 167.415 50.3506 167.415 51.3515C167.415 52.3525 168.226 53.164 169.227 53.164Z" fill="#1D1D1B"/>
<path fill-rule="evenodd" clip-rule="evenodd" d="M159.105 76.1731C159.427 76.6189 159.328 77.2418 158.882 77.5644C156.626 79.1983 154.19 79.3748 152.371 79.1639C151.461 79.0582 150.689 78.8542 150.143 78.6763C149.868 78.587 149.649 78.5035 149.494 78.4407C149.417 78.4092 149.356 78.383 149.312 78.3636C149.29 78.3538 149.273 78.3459 149.259 78.3399L149.243 78.3324L149.238 78.3298L149.236 78.3288L149.235 78.3284C149.234 78.3282 149.234 78.328 149.659 77.4324L149.234 78.328C148.738 78.0918 148.525 77.4974 148.762 77.0004C148.998 76.5042 149.59 76.2927 150.087 76.527L150.091 76.5288L150.117 76.541C150.144 76.5526 150.186 76.571 150.244 76.5944C150.36 76.6414 150.535 76.7083 150.759 76.7814C151.21 76.9282 151.85 77.0973 152.601 77.1844C154.105 77.359 155.988 77.2001 157.715 75.95C158.16 75.6274 158.782 75.7273 159.105 76.1731Z" fill="#1D1D1B"/>
<path fill-rule="evenodd" clip-rule="evenodd" d="M170.529 62.2957C171.043 62.4899 171.303 63.0647 171.109 63.5796L170.177 63.228C171.109 63.5796 171.109 63.5793 171.109 63.5796L171.108 63.5824L171.106 63.587L171.101 63.6012L171.082 63.6494C171.066 63.69 171.042 63.7475 171.012 63.8198C170.952 63.9643 170.862 64.1687 170.745 64.4169C170.51 64.9121 170.159 65.5887 169.692 66.3171C168.775 67.7462 167.331 69.5024 165.33 70.3707C165.228 70.4144 165.121 70.4412 165.011 70.4498C163.765 70.5485 162.38 70.2325 161.07 69.7706C159.743 69.3029 158.404 68.6538 157.221 68.0063C156.034 67.3571 154.984 66.699 154.232 66.204C154.063 66.0922 153.908 65.9887 153.769 65.8951C153.695 65.9789 153.616 66.0685 153.532 66.1632C153.014 66.7424 152.283 67.518 151.438 68.2968C150.596 69.0723 149.619 69.8716 148.607 70.4824C147.615 71.0819 146.483 71.5644 145.358 71.5644C145.093 71.5644 144.779 71.5659 144.426 71.5675C142.979 71.5742 140.881 71.5838 138.867 71.5086C137.614 71.4618 136.369 71.3815 135.314 71.2433C134.313 71.1123 133.311 70.9109 132.674 70.5359C131.605 69.9075 130.933 69.0975 130.365 68.1995C130.096 67.7734 129.842 67.3146 129.585 66.8524C129.578 66.8386 129.57 66.8249 129.562 66.8111C129.295 66.3275 129.017 65.8269 128.688 65.2934C128.399 64.8251 128.545 64.2112 129.012 63.9222C129.48 63.6333 130.094 63.7786 130.383 64.2469C130.739 64.8249 131.038 65.3632 131.305 65.8453L131.313 65.8595C131.581 66.343 131.81 66.7574 132.048 67.1336C132.516 67.8729 132.98 68.4048 133.683 68.8177C133.931 68.9634 134.552 69.1339 135.572 69.2676C136.539 69.3941 137.714 69.4715 138.941 69.5173C140.908 69.5908 142.949 69.5815 144.397 69.5748C144.757 69.5732 145.081 69.5717 145.358 69.5717C145.949 69.5717 146.706 69.3031 147.579 68.7762C148.433 68.2605 149.3 67.5577 150.089 66.831C150.873 66.1078 151.559 65.3813 152.048 64.834C152.292 64.561 152.486 64.3342 152.619 64.1768C152.686 64.0981 152.736 64.0369 152.769 63.996L152.807 63.9503L152.815 63.9397L152.817 63.9375C153.149 63.5215 153.75 63.4409 154.181 63.7546L170.529 62.2957ZM154.181 63.7546L154.184 63.7571L154.198 63.7668L154.254 63.8075C154.305 63.8436 154.381 63.8974 154.48 63.9663C154.677 64.1041 154.966 64.302 155.327 64.5389C156.047 65.0135 157.05 65.6416 158.177 66.2579C159.306 66.8759 160.542 67.4716 161.732 67.8911C162.862 68.2891 163.876 68.5016 164.691 68.4726C166.081 67.8129 167.205 66.5044 168.016 65.241C168.427 64.6 168.737 64.0011 168.945 63.5631C169.048 63.3448 169.126 63.1681 169.176 63.0483C169.201 62.9884 169.22 62.9428 169.231 62.9136L169.244 62.882L169.246 62.8764C169.44 62.3618 170.014 62.1017 170.529 62.2957" fill="#1D1D1B"/>
<path d="M165.255 180.951C165.789 180.824 166.326 181.155 166.452 181.691C167.17 184.717 167.311 187.853 166.87 190.934C166.792 191.478 166.287 191.857 165.743 191.779C165.198 191.701 164.82 191.196 164.898 190.651C165.305 187.817 165.174 184.933 164.515 182.151C164.388 181.615 164.719 181.078 165.255 180.951Z" fill="#1D1D1B"/>
</svg>
